<!DOCTYPE svg PUBLIC "-//W3C//DTD SVG 1.1//EN" "http://www.w3.org/Graphics/SVG/1.1/DTD/svg11.dtd">
<!-- Uploaded to: SVG Repo, www.svgrepo.com, Transformed by: SVG Repo Mixer Tools -->
<svg height="102px" width="102px" version="1.1" id="Layer_1" xmlns="http://www.w3.org/2000/svg" xmlns:xlink="http://www.w3.org/1999/xlink" viewBox="-46.08 -46.08 604.16 604.16" xml:space="preserve" fill="#000000" stroke="#000000" stroke-width="2.56">
<g id="SVGRepo_bgCarrier" stroke-width="0"/>
<g id="SVGRepo_tracerCarrier" stroke-linecap="round" stroke-linejoin="round" stroke="#CCCCCC" stroke-width="70.65599999999999"> <path style="fill:#7AB6DE;" d="M95.439,259.562c-9.845,0-17.855,8.01-17.855,17.855v61.429h95.788c0.305,0,0.544,0.243,0.545,0.552 l0.019,7.607h31.573v-7.626c0-24.187,5.634-47.292,16.746-68.676l5.789-11.142H95.439L95.439,259.562z"/> <path style="fill:#4693BD;" d="M110.405,339.391c-8.331,0-15.149,6.42-15.149,14.265v48.05h125.402v-62.315H110.405z"/> <path style="fill:#ADD9FF;" d="M354.936,232.459c58.39,0,106.768,65.482,114.132,121.9 c-7.364,56.418-55.743,100.123-114.132,100.123c-58.379,0-106.757-43.705-114.122-100.123 C248.178,297.94,296.557,232.459,354.936,232.459z"/> <path style="fill:#94C8EF;" d="M470.038,339.38c0,5.076-0.327,10.077-0.97,14.979c-7.364-56.418-55.743-100.112-114.132-100.112 c-58.379,0-106.757,43.694-114.122,100.112c-0.643-4.902-0.97-9.902-0.97-14.979c0-63.466,51.636-115.091,115.091-115.091 C418.402,224.289,470.038,275.914,470.038,339.38z"/> <circle style="fill:#7AB6DE;" cx="95.254" cy="447.597" r="45.96"/> <path style="fill:#4693BD;" d="M95.256,463.937c-9.01,0-16.34-7.33-16.34-16.34s7.33-16.34,16.34-16.34s16.34,7.33,16.34,16.34 S104.267,463.937,95.256,463.937z"/> <path style="fill:#FFDD77;" d="M467.815,243.229c-22.614-26.506-53.849-44.293-87.941-50.085 c-8.143-1.395-16.533-2.102-24.939-2.102c-81.795,0-148.338,66.549-148.338,148.349s66.544,148.349,148.338,148.349 c81.8,0,148.349-66.549,148.349-148.349C503.285,304.191,490.688,270.04,467.815,243.229z M437.335,420.429l-0.392,0.414 l-0.255,0.336c-0.028,0.023-0.407,0.322-0.407,0.322l-0.295,0.29c-21.784,21.432-50.568,33.236-81.048,33.236 c-30.478,0-59.258-11.807-81.039-33.246l-0.346-0.342c0,0-0.391-0.297-0.393-0.298c-0.021-0.026-0.318-0.402-0.318-0.402 l-0.291-0.296c-21.441-21.804-33.248-50.588-33.248-81.051c0-30.474,11.808-59.258,33.247-81.05l0.292-0.296l0.327-0.421 l0.386-0.293l0.345-0.34c21.785-21.432,50.566-33.236,81.04-33.236c30.48,0,59.263,11.803,81.048,33.236l0.293,0.288 c0,0,0.393,0.31,0.429,0.341c0.032,0.037,0.343,0.431,0.343,0.431l0.284,0.289c21.441,21.804,33.248,50.588,33.248,81.051 C470.582,369.857,458.776,398.637,437.335,420.429z"/> <path style="fill:#7AB6DE;" d="M354.936,293.975c-25.036,0-45.406,20.373-45.406,45.415c0,25.042,20.369,45.415,45.406,45.415 c25.041,0,45.414-20.373,45.414-45.415C400.351,314.348,379.978,293.975,354.936,293.975z"/> <path style="fill:#4693BD;" d="M385.651,160.425l24.71-141.437h-18.333c-9.07,0-17.714,7.267-19.265,16.193l-21.162,121.12 l-0.022,0.479c-0.002,0.053-0.012,0.103-0.026,0.155l-0.136,0.448l-5.695,32.581h9.074c0.126,0,0.259-0.003,0.397-0.01 c8.33,0.014,16.694,0.726,24.86,2.113l7.502,1.276l5.258-30.541l-6.785-1.765C385.806,160.978,385.599,160.723,385.651,160.425z"/> <g> <path style="fill:#1D2328;" d="M381.331,184.549C455.419,197.131,512,261.784,512,339.391c0,86.604-70.46,157.064-157.064,157.064 c-86.593,0-157.053-70.46-157.053-157.064v-0.011h10.545l5.795,0.011c0,77.595,63.129,140.724,140.713,140.724 c77.595,0,140.724-63.129,140.724-140.724c0-69.534-50.699-127.455-117.074-138.73l1.057-6.242L381.331,184.549z"/> <path style="fill:#1D2328;" d="M384.109,168.415c-4.063-1.057-6.7-5.087-5.97-9.303l23.149-132.499h-9.26 c-5.338,0-10.839,4.619-11.754,9.881L359.195,157.14c-0.033,0.697-0.153,1.373-0.349,2.015l-4.052,23.182 c0.044,0,0.098-0.011,0.142-0.011c8.998,0,17.811,0.763,26.395,2.222l-1.688,9.87l-1.057,6.242 c-7.691-1.318-15.589-1.994-23.65-1.994c-77.584,0-140.713,63.129-140.713,140.724l-5.795-0.011h-10.545 c0-26.014,6.362-50.557,17.604-72.192H95.439c-5.632,0-10.229,4.586-10.229,10.229v53.804h88.162c4.51,0,8.159,3.649,8.17,8.159 v0.011c0,4.51-3.66,8.17-8.17,8.17h-69.763v46.581c25.84,4.074,45.655,26.493,45.655,53.455c0,29.849-24.282,54.13-54.13,54.13 c-27.071,0-49.555-19.979-53.509-45.96H8.17c-4.51,0-8.17-3.66-8.17-8.17s3.66-8.17,8.17-8.17h33.454 c3.562-23.421,22.19-41.951,45.644-45.383v-46.483H77.04c-4.51,0-8.17-3.66-8.17-8.17v-61.974c0-14.652,11.918-26.57,26.57-26.57 h129.852c25.306-36.951,65.994-62.584,112.76-67.606l3.203-18.367H112.335c-4.804,0-8.726,3.911-8.726,8.726v52.736 c0,4.51-3.66,8.17-8.17,8.17c-4.51,0-8.17-3.66-8.17-8.17v-52.736c0-13.824,11.253-25.066,25.066-25.066h231.773l20.066-114.851 c2.299-13.127,14.532-23.41,27.855-23.41h70.438c4.51,0,8.17,3.66,8.17,8.17s-3.66,8.17-8.17,8.17h-44.588l-23.639,135.31 c-0.697,3.976-4.14,6.765-8.039,6.765c-0.468,0-0.937-0.033-1.416-0.12C384.556,168.524,384.327,168.481,384.109,168.415z M132.924,447.597c0-20.84-16.95-37.79-37.79-37.79c-20.829,0-37.79,16.95-37.79,37.79s16.961,37.79,37.79,37.79 C115.973,485.387,132.924,468.436,132.924,447.597z"/> <path style="fill:#1D2328;" d="M442.771,252.993c21.896,22.267,35.437,52.78,35.437,86.397s-13.541,64.131-35.437,86.386 c-0.207,0.272-0.425,0.534-0.664,0.773c-0.251,0.251-0.512,0.468-0.773,0.675c-22.256,21.896-52.769,35.426-86.397,35.426 c-33.618,0-64.131-13.53-86.386-35.437c-0.272-0.207-0.523-0.425-0.773-0.664c-0.24-0.24-0.458-0.501-0.665-0.763 c-21.896-22.267-35.437-52.78-35.437-86.397s13.53-64.131,35.437-86.397c0.207-0.261,0.425-0.523,0.665-0.763 c0.251-0.251,0.501-0.468,0.773-0.675c22.256-21.896,52.769-35.426,86.386-35.426c33.629,0,64.142,13.53,86.397,35.426 c0.261,0.207,0.523,0.425,0.773,0.675C442.346,252.47,442.564,252.732,442.771,252.993z M461.868,339.391 c0-26.548-9.728-50.862-25.796-69.578l-37.539,37.539c6.612,8.976,10.534,20.055,10.534,32.038 c0,11.983-3.922,23.062-10.534,32.038l37.539,37.529C452.14,390.253,461.868,365.938,461.868,339.391z M386.974,295.794 l37.539-37.529c-18.715-16.079-43.03-25.796-69.578-25.796c-26.537,0-50.851,9.717-69.567,25.796l37.529,37.529 c8.976-6.612,20.066-10.534,32.038-10.534C366.919,285.26,377.998,289.182,386.974,295.794z M424.513,420.515l-37.539-37.529 c-8.976,6.612-20.055,10.534-32.038,10.534c-11.972,0-23.062-3.922-32.038-10.534l-37.529,37.529 c18.715,16.068,43.03,25.796,69.567,25.796C381.484,446.311,405.798,436.583,424.513,420.515z M392.726,339.391 c0-20.84-16.95-37.79-37.79-37.79c-20.829,0-37.779,16.95-37.779,37.79c0,20.839,16.95,37.79,37.779,37.79 C375.775,377.181,392.726,360.23,392.726,339.391z M311.35,307.353l-37.539-37.539c-16.068,18.715-25.796,43.03-25.796,69.578 c0,26.548,9.728,50.862,25.796,69.567l37.539-37.529c-6.623-8.976-10.534-20.055-10.534-32.038 C300.816,327.408,304.727,316.329,311.35,307.353z"/> </g> </g>
<g id="SVGRepo_iconCarrier"> <path style="fill:#7AB6DE;" d="M95.439,259.562c-9.845,0-17.855,8.01-17.855,17.855v61.429h95.788c0.305,0,0.544,0.243,0.545,0.552 l0.019,7.607h31.573v-7.626c0-24.187,5.634-47.292,16.746-68.676l5.789-11.142H95.439L95.439,259.562z"/> <path style="fill:#4693BD;" d="M110.405,339.391c-8.331,0-15.149,6.42-15.149,14.265v48.05h125.402v-62.315H110.405z"/> <path style="fill:#ADD9FF;" d="M354.936,232.459c58.39,0,106.768,65.482,114.132,121.9 c-7.364,56.418-55.743,100.123-114.132,100.123c-58.379,0-106.757-43.705-114.122-100.123 C248.178,297.94,296.557,232.459,354.936,232.459z"/> <path style="fill:#94C8EF;" d="M470.038,339.38c0,5.076-0.327,10.077-0.97,14.979c-7.364-56.418-55.743-100.112-114.132-100.112 c-58.379,0-106.757,43.694-114.122,100.112c-0.643-4.902-0.97-9.902-0.97-14.979c0-63.466,51.636-115.091,115.091-115.091 C418.402,224.289,470.038,275.914,470.038,339.38z"/> <circle style="fill:#7AB6DE;" cx="95.254" cy="447.597" r="45.96"/> <path style="fill:#4693BD;" d="M95.256,463.937c-9.01,0-16.34-7.33-16.34-16.34s7.33-16.34,16.34-16.34s16.34,7.33,16.34,16.34 S104.267,463.937,95.256,463.937z"/> <path style="fill:#FFDD77;" d="M467.815,243.229c-22.614-26.506-53.849-44.293-87.941-50.085 c-8.143-1.395-16.533-2.102-24.939-2.102c-81.795,0-148.338,66.549-148.338,148.349s66.544,148.349,148.338,148.349 c81.8,0,148.349-66.549,148.349-148.349C503.285,304.191,490.688,270.04,467.815,243.229z M437.335,420.429l-0.392,0.414 l-0.255,0.336c-0.028,0.023-0.407,0.322-0.407,0.322l-0.295,0.29c-21.784,21.432-50.568,33.236-81.048,33.236 c-30.478,0-59.258-11.807-81.039-33.246l-0.346-0.342c0,0-0.391-0.297-0.393-0.298c-0.021-0.026-0.318-0.402-0.318-0.402 l-0.291-0.296c-21.441-21.804-33.248-50.588-33.248-81.051c0-30.474,11.808-59.258,33.247-81.05l0.292-0.296l0.327-0.421 l0.386-0.293l0.345-0.34c21.785-21.432,50.566-33.236,81.04-33.236c30.48,0,59.263,11.803,81.048,33.236l0.293,0.288 c0,0,0.393,0.31,0.429,0.341c0.032,0.037,0.343,0.431,0.343,0.431l0.284,0.289c21.441,21.804,33.248,50.588,33.248,81.051 C470.582,369.857,458.776,398.637,437.335,420.429z"/> <path style="fill:#7AB6DE;" d="M354.936,293.975c-25.036,0-45.406,20.373-45.406,45.415c0,25.042,20.369,45.415,45.406,45.415 c25.041,0,45.414-20.373,45.414-45.415C400.351,314.348,379.978,293.975,354.936,293.975z"/> <path style="fill:#4693BD;" d="M385.651,160.425l24.71-141.437h-18.333c-9.07,0-17.714,7.267-19.265,16.193l-21.162,121.12 l-0.022,0.479c-0.002,0.053-0.012,0.103-0.026,0.155l-0.136,0.448l-5.695,32.581h9.074c0.126,0,0.259-0.003,0.397-0.01 c8.33,0.014,16.694,0.726,24.86,2.113l7.502,1.276l5.258-30.541l-6.785-1.765C385.806,160.978,385.599,160.723,385.651,160.425z"/> <g> <path style="fill:#1D2328;" d="M381.331,184.549C455.419,197.131,512,261.784,512,339.391c0,86.604-70.46,157.064-157.064,157.064 c-86.593,0-157.053-70.46-157.053-157.064v-0.011h10.545l5.795,0.011c0,77.595,63.129,140.724,140.713,140.724 c77.595,0,140.724-63.129,140.724-140.724c0-69.534-50.699-127.455-117.074-138.73l1.057-6.242L381.331,184.549z"/> <path style="fill:#1D2328;" d="M384.109,168.415c-4.063-1.057-6.7-5.087-5.97-9.303l23.149-132.499h-9.26 c-5.338,0-10.839,4.619-11.754,9.881L359.195,157.14c-0.033,0.697-0.153,1.373-0.349,2.015l-4.052,23.182 c0.044,0,0.098-0.011,0.142-0.011c8.998,0,17.811,0.763,26.395,2.222l-1.688,9.87l-1.057,6.242 c-7.691-1.318-15.589-1.994-23.65-1.994c-77.584,0-140.713,63.129-140.713,140.724l-5.795-0.011h-10.545 c0-26.014,6.362-50.557,17.604-72.192H95.439c-5.632,0-10.229,4.586-10.229,10.229v53.804h88.162c4.51,0,8.159,3.649,8.17,8.159 v0.011c0,4.51-3.66,8.17-8.17,8.17h-69.763v46.581c25.84,4.074,45.655,26.493,45.655,53.455c0,29.849-24.282,54.13-54.13,54.13 c-27.071,0-49.555-19.979-53.509-45.96H8.17c-4.51,0-8.17-3.66-8.17-8.17s3.66-8.17,8.17-8.17h33.454 c3.562-23.421,22.19-41.951,45.644-45.383v-46.483H77.04c-4.51,0-8.17-3.66-8.17-8.17v-61.974c0-14.652,11.918-26.57,26.57-26.57 h129.852c25.306-36.951,65.994-62.584,112.76-67.606l3.203-18.367H112.335c-4.804,0-8.726,3.911-8.726,8.726v52.736 c0,4.51-3.66,8.17-8.17,8.17c-4.51,0-8.17-3.66-8.17-8.17v-52.736c0-13.824,11.253-25.066,25.066-25.066h231.773l20.066-114.851 c2.299-13.127,14.532-23.41,27.855-23.41h70.438c4.51,0,8.17,3.66,8.17,8.17s-3.66,8.17-8.17,8.17h-44.588l-23.639,135.31 c-0.697,3.976-4.14,6.765-8.039,6.765c-0.468,0-0.937-0.033-1.416-0.12C384.556,168.524,384.327,168.481,384.109,168.415z M132.924,447.597c0-20.84-16.95-37.79-37.79-37.79c-20.829,0-37.79,16.95-37.79,37.79s16.961,37.79,37.79,37.79 C115.973,485.387,132.924,468.436,132.924,447.597z"/> <path style="fill:#1D2328;" d="M442.771,252.993c21.896,22.267,35.437,52.78,35.437,86.397s-13.541,64.131-35.437,86.386 c-0.207,0.272-0.425,0.534-0.664,0.773c-0.251,0.251-0.512,0.468-0.773,0.675c-22.256,21.896-52.769,35.426-86.397,35.426 c-33.618,0-64.131-13.53-86.386-35.437c-0.272-0.207-0.523-0.425-0.773-0.664c-0.24-0.24-0.458-0.501-0.665-0.763 c-21.896-22.267-35.437-52.78-35.437-86.397s13.53-64.131,35.437-86.397c0.207-0.261,0.425-0.523,0.665-0.763 c0.251-0.251,0.501-0.468,0.773-0.675c22.256-21.896,52.769-35.426,86.386-35.426c33.629,0,64.142,13.53,86.397,35.426 c0.261,0.207,0.523,0.425,0.773,0.675C442.346,252.47,442.564,252.732,442.771,252.993z M461.868,339.391 c0-26.548-9.728-50.862-25.796-69.578l-37.539,37.539c6.612,8.976,10.534,20.055,10.534,32.038 c0,11.983-3.922,23.062-10.534,32.038l37.539,37.529C452.14,390.253,461.868,365.938,461.868,339.391z M386.974,295.794 l37.539-37.529c-18.715-16.079-43.03-25.796-69.578-25.796c-26.537,0-50.851,9.717-69.567,25.796l37.529,37.529 c8.976-6.612,20.066-10.534,32.038-10.534C366.919,285.26,377.998,289.182,386.974,295.794z M424.513,420.515l-37.539-37.529 c-8.976,6.612-20.055,10.534-32.038,10.534c-11.972,0-23.062-3.922-32.038-10.534l-37.529,37.529 c18.715,16.068,43.03,25.796,69.567,25.796C381.484,446.311,405.798,436.583,424.513,420.515z M392.726,339.391 c0-20.84-16.95-37.79-37.79-37.79c-20.829,0-37.779,16.95-37.779,37.79c0,20.839,16.95,37.79,37.779,37.79 C375.775,377.181,392.726,360.23,392.726,339.391z M311.35,307.353l-37.539-37.539c-16.068,18.715-25.796,43.03-25.796,69.578 c0,26.548,9.728,50.862,25.796,69.567l37.539-37.529c-6.623-8.976-10.534-20.055-10.534-32.038 C300.816,327.408,304.727,316.329,311.35,307.353z"/> </g> </g>
</svg>